Coordinates
version=1
nRows=29
nColumns=24
inDegrees=yes

Units are S.I. units (second, meters, Newtons, ...)
Angles are in degrees.

endheader
time	pelvis_tilt	pelvis_list	pelvis_rotation	pelvis_tx	pelvis_ty	pelvis_tz	hip_flexion_r	hip_adduction_r	hip_rotation_r	knee_angle_r	ankle_angle_r	subtalar_angle_r	mtp_angle_r	hip_flexion_l	hip_adduction_l	hip_rotation_l	knee_angle_l	ankle_angle_l	subtalar_angle_l	mtp_angle_l	lumbar_extension	lumbar_bending	lumbar_rotation
      0.76633333	     -0.97393051	     -4.68551500	      6.27200832	     -0.34937835	      0.90846079	      0.31994876	     12.79109953	      9.88561848	     -2.92299348	    -21.63989715	      9.86563064	     -4.79074486	      2.13347973	     11.77865414	     -9.00408543	     -3.07155072	    -67.49421969	     -0.25188153	     -8.19552480	      1.78707638	     -3.86869984	      7.55520001	     -3.71838511
      0.77050000	     -1.03049940	     -4.51006549	      6.21068134	     -0.34421276	      0.90959703	      0.32006080	     12.20399104	      9.76168009	     -2.73505142	    -21.12810204	      9.88014725	     -4.78747900	      2.11109550	     12.48775205	     -8.69531530	     -3.20741910	    -67.19058173	      0.35987184	     -8.38055933	      1.63061616	     -3.86156874	      7.34701514	     -3.31718731
      0.77466667	     -1.08631709	     -4.33230702	      6.15091847	     -0.33902385	      0.91071557	      0.32012458	     11.61190478	      9.62066231	     -2.59682882	    -20.60883028	      9.90178977	     -4.69524733	      2.10581265	     13.17308634	     -8.37888251	     -3.34877337	    -66.80716952	      0.95752381	     -8.55012644	      1.59694981	     -3.81672700	      7.16007055	     -3.24772133
      0.77883333	     -1.10854632	     -4.13968658	      6.07003832	     -0.33386832	      0.91185785	      0.32022335	     10.98322546	      9.47251719	     -2.42590982	    -20.08880893	      9.91022615	     -4.62197818	      2.09730754	     13.79596505	     -8.05009767	     -3.50827262	    -66.34927787	      1.55272555	     -8.68688838	      1.53509034	     -3.86597647	      6.94437989	     -3.06094723
      0.78300000	     -1.09520570	     -3.95541039	      5.96897902	     -0.32865372	      0.91303795	      0.32035547	     10.28851008	      9.34144389	     -2.23151643	    -19.51196949	      9.90616227	     -4.56617409	      2.07930642	     14.34899722	     -7.75459258	     -3.71797051	    -65.81290197	      2.08263368	     -8.76604625	      1.37177013	     -3.91172526	      6.76068210	     -2.70199628
      0.78716667	     -1.12200398	     -3.75377958	      5.86931715	     -0.32349199	      0.91410650	      0.32046912	      9.66483752	      9.17472646	     -2.09231049	    -18.98770704	      9.91528710	     -4.47775748	      2.07511162	     14.93585816	     -7.42597046	     -3.91721402	    -65.22115474	      2.62610500	     -8.85699400	      1.33909607	     -3.91049813	      6.52036552	     -2.61260340
      0.79133333	     -1.05429054	     -3.54934522	      5.74704860	     -0.31830093	      0.91530336	      0.32063281	      8.90632380	      9.02402585	     -1.88655158	    -18.39992448	      9.93578114	     -4.40258680	      2.06794096	     15.38119341	     -7.11933547	     -4.15090151	    -64.53949409	      3.10243245	     -8.87278494	      1.24777051	     -4.06092482	      6.29813748	     -2.30434109
      0.79550000	     -1.02145948	     -3.35567734	      5.60737961	     -0.31313317	      0.91639569	      0.32081679	      8.19547076	      8.87706923	     -1.68711071	    -17.81847798	      9.89386261	     -4.32612001	      2.05969387	     15.85286358	     -6.82717073	     -4.40273063	    -63.81153917	      3.59517167	     -8.87349422	      1.12272008	     -4.15311444	      6.09209468	     -2.00573008
      0.79966667	     -1.00511050	     -3.13231834	      5.45596255	     -0.30798944	      0.91741667	      0.32100216	      7.52555880	      8.68747595	     -1.52232960	    -17.28921303	      9.88491583	     -4.23295025	      2.05740441	     16.31867582	     -6.49925234	     -4.67016048	    -63.01598617	      4.06089681	     -8.87139556	      1.08762343	     -4.22152906	      5.81900359	     -1.88139521
      0.80383333	     -0.89703754	     -2.93155032	      5.30040605	     -0.30279677	      0.91853746	      0.32122017	      6.71486278	      8.53647445	     -1.31163865	    -16.67117353	      9.89854837	     -4.15152984	      2.05714657	     16.65877562	     -6.22294227	     -4.95299320	    -62.15008723	      4.45889006	     -8.79748562	      1.01172548	     -4.40536829	      5.61917536	     -1.54864413
      0.80800000	     -0.82351105	     -2.72213779	      5.12418449	     -0.29764556	      0.91954787	      0.32146439	      5.96475058	      8.36684419	     -1.10980569	    -16.09341939	      9.88029431	     -4.07166962	      2.05799222	     17.02138422	     -5.93845076	     -5.25733753	    -61.23566014	      4.85710578	     -8.71370795	      0.94780959	     -4.54694965	      5.38311324	     -1.28596470
      0.81216667	     -0.76164798	     -2.49844821	      4.92521123	     -0.29251904	      0.92049137	      0.32172445	      5.24690167	      8.17299239	     -0.92020358	    -15.55126286	      9.83608301	     -3.97182239	      2.05911434	     17.37204024	     -5.63912132	     -5.57896337	    -60.25671150	      5.24115042	     -8.61792440	      0.90997150	     -4.68172665	      5.12785243	     -1.08433408
      0.81633333	     -0.67043748	     -2.29039474	      4.72576875	     -0.28737920	      0.92141521	      0.32200774	      4.48334716	      7.99761802	     -0.72142920	    -14.97473637	      9.82158619	     -3.87442746	      2.06324707	     17.67757933	     -5.37238131	     -5.91214310	    -59.23093712	      5.57539913	     -8.48875358	      0.87300913	     -4.84560803	      4.89971546	     -0.82535466
      0.82050000	     -0.56982646	     -2.09288705	      4.52041356	     -0.28224854	      0.92228684	      0.32230558	      3.71165835	      7.83026621	     -0.52295144	    -14.39513340	      9.80555262	     -3.78139209	      2.06997304	     17.95959797	     -5.12446624	     -6.25019380	    -58.15843464	      5.88254015	     -8.33745570	      0.83584749	     -5.01758427	      4.67973707	     -0.53942886
      0.82466667	     -0.45651118	     -1.91453847	      4.31403656	     -0.27713543	      0.92309628	      0.32262122	      2.92107541	      7.68205350	     -0.31789370	    -13.79269881	      9.80014424	     -3.69987778	      2.08303270	     18.22234538	     -4.90647827	     -6.59151095	    -57.05381927	      6.16234788	     -8.16255098	      0.78867418	     -5.20832000	      4.47622728	     -0.19643192
      0.82883333	     -0.36524903	     -1.73532250	      4.08519563	     -0.27203822	      0.92381307	      0.32297227	      2.17130608	      7.52530706	     -0.11000339	    -13.21899808	      9.74368483	     -3.60274810	      2.10526642	     18.48950043	     -4.69348160	     -6.95009270	    -55.89941476	      6.43516956	     -7.97594833	      0.72877510	     -5.38413279	      4.25694998	      0.14195241
      0.83300000	     -0.26723827	     -1.54823762	      3.85401176	     -0.26694553	      0.92447807	      0.32331221	      1.42249953	      7.35146867	      0.06989696	    -12.66258044	      9.75374222	     -3.48330237	      2.12566955	     18.72988149	     -4.47233887	     -7.31495105	    -54.68808893	      6.64499893	     -7.78421985	      0.69128106	     -5.55272856	      4.02879796	      0.38989704
      0.83716667	     -0.17720647	     -1.38075691	      3.61580758	     -0.26187058	      0.92504892	      0.32367852	      0.69081168	      7.19384794	      0.24591299	    -12.11383418	      9.74036158	     -3.35899904	      2.15106189	     18.97117735	     -4.27972292	     -7.68120781	    -53.44547506	      6.83829696	     -7.58272073	      0.65770052	     -5.71943213	      3.82638898	      0.67773582
      0.84133333	     -0.09182342	     -1.22443668	      3.37302880	     -0.25680762	      0.92553992	      0.32404298	     -0.02872440	      7.04053450	      0.41049390	    -11.57296244	      9.72871973	     -3.22042977	      2.18284360	     19.20516891	     -4.10061437	     -8.04684624	    -52.16278896	      7.00274060	     -7.37500496	      0.62706524	     -5.87887846	      3.63619041	      0.97122841
      0.84550000	     -0.01321673	     -1.07717651	      3.12797025	     -0.25175099	      0.92595078	      0.32441021	     -0.73477657	      6.89018933	      0.55962270	    -11.03942146	      9.72441967	     -3.06532628	      2.21971098	     19.43429361	     -3.93400771	     -8.41424414	    -50.84162292	      7.13230420	     -7.17037843	      0.60216852	     -6.02890403	      3.45305834	      1.25606122
      0.84966667	      0.05435142	     -0.94459251	      2.87872201	     -0.24671093	      0.92626591	      0.32478290	     -1.41900524	      6.74840030	      0.69562707	    -10.51797372	      9.72407331	     -2.89109243	      2.26236210	     19.66599995	     -3.78685802	     -8.78407156	    -49.48913017	      7.23393680	     -6.95835479	      0.58204842	     -6.16388855	      3.28591696	      1.53909911
      0.85383333	      0.09656508	     -0.81301612	      2.62023480	     -0.24167915	      0.92647900	      0.32514975	     -2.05675062	      6.59694419	      0.80500550	    -10.03290872	      9.71357759	     -2.70555338	      2.29368118	     19.90852537	     -3.64175269	     -9.16397214	    -48.09098760	      7.28649683	     -6.75190727	      0.57176515	     -6.27096754	      3.11334933	      1.75016855
      0.85800000	      0.15107954	     -0.70697568	      2.37427582	     -0.23663473	      0.92662746	      0.32551476	     -2.71916901	      6.47113397	      0.90276721	     -9.52072381	      9.73002615	     -2.48899656	      2.33254076	     20.13080224	     -3.52565928	     -9.52546712	    -46.67059373	      7.32694770	     -6.55180142	      0.56402332	     -6.38808201	      2.97317011	      2.01850219
      0.86216667	      0.18951576	     -0.61611628	      2.13176364	     -0.23160354	      0.92667331	      0.32586298	     -3.35598801	      6.35450207	      0.98061520	     -9.02005444	      9.75300215	     -2.25337709	      2.37649126	     20.36406451	     -3.42363711	     -9.88042209	    -45.22555247	      7.33840999	     -6.36019424	      0.55917216	     -6.48577810	      2.84730840	      2.29124699
      0.86633333	      0.21669603	     -0.53940817	      1.89169683	     -0.22656078	      0.92663097	      0.32619940	     -3.97716293	      6.24755160	      1.04097711	     -8.52670452	      9.78621550	     -1.99741383	      2.42678701	     20.59718969	     -3.33762028	    -10.23438155	    -43.75161831	      7.32426442	     -6.17746582	      0.55731725	     -6.57040018	      2.73677459	      2.56561248
      0.87050000	      0.24481760	     -0.48553037	      1.66731778	     -0.22152315	      0.92650255	      0.32651140	     -4.60426870	      6.16103865	      1.08101870	     -8.02046596	      9.86645019	     -1.68748349	      2.50958032	     20.82739903	     -3.26963655	    -10.55814831	    -42.26509788	      7.30414549	     -6.01597398	      0.56107963	     -6.66269176	      2.65709122	      2.90351964
      0.87466667	      0.24323808	     -0.43306820	      1.43659559	     -0.21647898	      0.92627153	      0.32681623	     -5.17977171	      6.06863197	      1.09699572	     -7.55384899	      9.92413892	     -1.37490869	      2.59533960	     21.07129063	     -3.20428998	    -10.89523775	    -40.74025368	      7.24022542	     -5.85648958	      0.56905866	     -6.71228690	      2.57467378	      3.16775469
      0.87883333	      0.23167618	     -0.39413532	      1.21460992	     -0.21142272	      0.92595489	      0.32709488	     -5.73984719	      5.98648438	      1.08731137	     -7.09772052	      9.99258127	     -1.04103356	      2.68915373	     21.31523833	     -3.14949756	    -11.22195229	    -39.19316051	      7.15903105	     -5.70961484	      0.58234826	     -6.74798661	      2.50783897	      3.42252869
      0.88300000	      0.19216421	     -0.36166331	      0.99041893	     -0.20635431	      0.92553265	      0.32737004	     -6.25773602	      5.90716916	      1.05836525	     -6.66460207	     10.03381303	     -0.73406303	      2.75851808	     21.57659578	     -3.10697427	    -11.56821746	    -37.62250083	      7.04922528	     -5.55344599	      0.59357445	     -6.73318228	      2.44701827	      3.61374507
